<svg>
    <symbol id="youtube" xmlns="http://www.w3.org/2000/svg" viewBox="0 0 46 48">
      <rect class="rect" width="46" height="48"/>
      <path class="icon-path" d="M30.1 17H15.8c-1.5 0-2.8 1.3-2.8 2.8v8.3c0 1.6 1.3 2.9 2.8 2.9h14.3c1.6 0 2.8-1.3 2.8-2.8v-8.4c.1-1.5-1.2-2.8-2.8-2.8zM20 27.4v-6.8l6.8 3.4-6.8 3.4z" fill="currentColor"/>
    </symbol>
    <symbol id="facebook" xmlns="http://www.w3.org/2000/svg" viewBox="0 0 47 48">
      <rect width="47" height="48"/>
      <path class="icon-path" d="M25.3 16.4h2.4V13h-2.9c-3.1.2-4.3 2.4-3.9 6.1H19v3.5h2v9.3h3.8v-9.3h2.9v-3.5h-2.9c0-1 0-2.4.5-2.7z" fill="currentColor"/></symbol>
      <symbol id="twitter" xmlns="http://www.w3.org/2000/svg" viewBox="0 0 46 48">
        <rect width="46" height="48"/>
        <path class="icon-path" d="M25.3 16.167c1.7-.5 3.1.2 3.7 1.1.7-.2 1.4-.5 2.1-.7 0 .8-.5 1.5-.9 1.7.7.2 1.3-.5 1.3-.5-.2 1-1 1.7-1.6 2-.2 6.6-3.3 11-10.4 10.8H19c-.4 0-4.3-.4-5-1.8 2.3.2 4-.4 4.8-1.1-1-.3-2.8-.5-3.1-2.9.4.1.6.2 1.3.1-1.2-.8-2.6-1.5-2.5-3.7.3.3 1.1.5 1.4.5-.7-.2-2-3.3-.9-4.8 1.9 1.8 3.8 3.5 7.4 3.7.1-2.3 1.1-3.8 2.9-4.4z" fill="currentColor"/></symbol>
  <symbol id="logoacademy" viewBox="0 0 27 35" xmlns="http://www.w3.org/2000/svg">
  <path d="M13.6 0h-.1L0 1.4v24.7l13.5 8 13.4-8V1.4L13.6 0zM25 12.1L13.5 5.3v-.1h-.1l-.1-.1v.1L1.9 12.1v-9l11.5-1.2L25 3.1v9zM13.4 6.8l11.5 6.7-4.5 2.6-7.1-4.2v1.4l5.9 3.5-.9.5-5-3v1.4l3.8 2.3-.8.5-3-1.8v1.4l1.9 1.1-1.8 1.1L2 13.6l11.4-6.8zM1.9 15.1l11.4 6.8v1l-7.9-4.7v1.4l8 4.8v1.1l-8-4.7v1.4l8 4.8 8.1-4.9v-5.2l3.4-2v10l-11.5 6.9L1.9 25v-9.9z" /></symbol>
  </svg>
