<svg xmlns="http://www.w3.org/2000/svg">
    <symbol id="youtube" xmlns="http://www.w3.org/2000/svg" viewBox="0 0 46 48">
      <rect class="rect" width="46" height="48"/>
      <path class="icon-path" d="M30.1 17H15.8c-1.5 0-2.8 1.3-2.8 2.8v8.3c0 1.6 1.3 2.9 2.8 2.9h14.3c1.6 0 2.8-1.3 2.8-2.8v-8.4c.1-1.5-1.2-2.8-2.8-2.8zM20 27.4v-6.8l6.8 3.4-6.8 3.4z" fill="currentColor"/>
    </symbol>

    <symbol id="facebook" xmlns="http://www.w3.org/2000/svg" viewBox="0 0 47 48">
      <rect width="47" height="48"/>
      <path class="icon-path" d="M25.3 16.4h2.4V13h-2.9c-3.1.2-4.3 2.4-3.9 6.1H19v3.5h2v9.3h3.8v-9.3h2.9v-3.5h-2.9c0-1 0-2.4.5-2.7z" fill="currentColor"/></symbol>

      <symbol id="twitter" xmlns="http://www.w3.org/2000/svg" viewBox="0 0 46 48">
        <rect width="46" height="48"/>
        <path class="icon-path" d="M25.3 16.167c1.7-.5 3.1.2 3.7 1.1.7-.2 1.4-.5 2.1-.7 0 .8-.5 1.5-.9 1.7.7.2 1.3-.5 1.3-.5-.2 1-1 1.7-1.6 2-.2 6.6-3.3 11-10.4 10.8H19c-.4 0-4.3-.4-5-1.8 2.3.2 4-.4 4.8-1.1-1-.3-2.8-.5-3.1-2.9.4.1.6.2 1.3.1-1.2-.8-2.6-1.5-2.5-3.7.3.3 1.1.5 1.4.5-.7-.2-2-3.3-.9-4.8 1.9 1.8 3.8 3.5 7.4 3.7.1-2.3 1.1-3.8 2.9-4.4z" fill="currentColor"/></symbol>

  <symbol id="logoacademy" viewBox="0 0 27 35" xmlns="http://www.w3.org/2000/svg">
  <path d="M13.6 0h-.1L0 1.4v24.7l13.5 8 13.4-8V1.4L13.6 0zM25 12.1L13.5 5.3v-.1h-.1l-.1-.1v.1L1.9 12.1v-9l11.5-1.2L25 3.1v9zM13.4 6.8l11.5 6.7-4.5 2.6-7.1-4.2v1.4l5.9 3.5-.9.5-5-3v1.4l3.8 2.3-.8.5-3-1.8v1.4l1.9 1.1-1.8 1.1L2 13.6l11.4-6.8zM1.9 15.1l11.4 6.8v1l-7.9-4.7v1.4l8 4.8v1.1l-8-4.7v1.4l8 4.8 8.1-4.9v-5.2l3.4-2v10l-11.5 6.9L1.9 25v-9.9z" /></symbol>

  <symbol id="like" fill="none"  viewBox="0 0 23 21" xmlns="http://www.w3.org/2000/svg">
  <path class="icon-like" fill="currentColor" d="M13 3.8l-.7 3-.6 2.6h9.1v2.2l-3 7.3H8.4V8.4L13 3.8zM2 10.5v8.4-8.4zM13.9 0L6.9 7c-.4.2-.6.8-.6 1.4v10.5c0 1.2 1 2.1 2 2.1h9.5a2 2 0 001.9-1.3l3-7.4c.2-.2.2-.5.2-.8v-2h.1c0-1.2-1-2.2-2-2.2h-6.7l1-4.8v-.3c0-.4-.1-.8-.4-1.2l-1.1-1zM4.2 8.4H0V21h4.2V8.4z"/></symbol>

  <symbol id="replay" viewBox="0 0 16 20" xmlns="http://www.w3.org/2000/svg">
  <path d="M8 4V0L3 5l5 5V6a6 6 0 016 6 6 6 0 01-6 6 6 6 0 01-6-6H0a8 8 0 008 8 8 8 0 008-8 8 8 0 00-8-8z" fill="currentColor"/></symbol>

  <symbol id="subtitle" viewBox="0 0 32 20"  fill="none" xmlns="http://www.w3.org/2000/svg">
  <path d="M29 0H3a3 3 0 00-3 3v14a3 3 0 003 3h26a3 3 0 003-3V3a3 3 0 00-3-3zM14.4 15.9l-1.7.1c-.7 0-1.4-.1-2-.3-.6-.2-1.2-.6-1.6-1-.4-.4-.8-1.1-1.1-1.9-.3-.8-.4-1.7-.4-2.8 0-1.1.2-2.1.5-2.9.3-.8.7-1.4 1.2-1.9s1.1-.8 1.7-1a10 10 0 013.5-.1l1.1.3-.4 1.9-.9-.3H13c-.9 0-1.6.3-2.2 1-.6.7-.8 1.7-.8 3l.2 1.6c.1.5.3.9.6 1.3l1 .8c.4.2.9.3 1.4.3l1.3-.1.9-.4.5 1.8-1.5.6zm8.7 0l-1.7.1c-.7 0-1.4-.1-2-.3-.6-.2-1.2-.6-1.6-1a4 4 0 01-1.1-1.9c-.3-.8-.4-1.7-.4-2.8 0-1.1.2-2.1.5-2.9.3-.8.7-1.4 1.2-1.9s1.1-.8 1.7-1a10 10 0 013.5-.1l1.1.3-.4 1.9L23 6h-1.3c-.9 0-1.6.3-2.2 1-.6.7-.8 1.7-.8 3l.2 1.6c.1.5.3.9.6 1.3l1 .8c.4.2.9.3 1.4.3l1.3-.1.9-.4.5 1.8-1.5.6z" fill="currentColor"/>
  </symbol>

<symbol id="fullscreen" viewBox="0 0 20 20" fill="none" xmlns="http://www.w3.org/2000/svg">
<path d="M0 0v6h3V3h3V0H0zM3 14H0v6h6v-3H3v-3zM17 0h-3v3h3v3h3V0h-3zM17 17h-3v3h6v-6h-3v3z" fill="currentColor"/></symbol>

  </svg>
