<svg width="46" height="48" viewBox="0 0 46 48" fill="none" xmlns="http://www.w3.org/2000/svg">
<rect width="46" height="48" fill="#81B3D2"/>
<path d="M26.3 17.1667C28 16.6667 29.4 17.3667 30 18.2667C30.7 18.0667 31.4 17.7667 32.1 17.5667C32.1 18.3667 31.6 19.0667 31.2 19.2667C31.9 19.4667 32.5 18.7667 32.5 18.7667C32.3 19.7667 31.5 20.4667 30.9 20.7667C30.7 27.3667 27.6 31.7667 20.5 31.5667C20 31.5667 20.6 31.5667 20 31.5667C19.6 31.5667 15.7 31.1667 15 29.7667C17.3 29.9667 19 29.3667 19.8 28.6667C18.8 28.3667 17 28.1667 16.7 25.7667C17.1 25.8667 17.3 25.9667 18 25.8667C16.8 25.0667 15.4 24.3667 15.5 22.1667C15.8 22.4667 16.6 22.6667 16.9 22.6667C16.2 22.4667 14.9 19.3667 16 17.8667C17.9 19.6667 19.8 21.3667 23.4 21.5667C23.5 19.2667 24.5 17.7667 26.3 17.1667Z" fill="white"/>
</svg>
